<svg width="24" height="24" xmlns="http://www.w3.org/2000/svg" xmlns:xlink="http://www.w3.org/1999/xlink" xml:space="preserve" overflow="hidden"><g transform="translate(-20 -83)"><path d="M41 89.021C41.003 88.875 40.993 87.556 39.7 86.286 38.427 85.036 37.143 85 37 85L26.996 85C26.757 85 25.503 85.063 24.288 86.302 23.036 87.578 23 88.859 23 89L23 92 22 92 22 95 23 95 23 101C23 101.734 23.406 102.373 24 102.721L24 104C24 104.552 24.4477 105 25 105L26 105C26.5523 105 27 104.552 27 104L27 103 37 103 37 104C37 104.552 37.4477 105 38 105L39 105C39.5523 105 40 104.552 40 104L40 102.723C40.6175 102.369 40.9988 101.712 41 101L41 95 42 95 42 92 41 92 41 89.021ZM29 87 35 87 35 89 29 89 29 87ZM26.5 101C25.6713 101 24.9997 100.328 25 99.499 25.0003 98.6703 25.6723 97.9987 26.501 97.999 27.3297 97.9993 28.0013 98.6713 28.001 99.5 28.0007 100.329 27.3287 101 26.5 101ZM31 96 25 96 25 91 31 91 31 96ZM37.5 101C36.6713 101 35.9997 100.328 36 99.499 36.0003 98.6703 36.6723 97.9987 37.501 97.999 38.3297 97.9993 39.0013 98.6713 39.001 99.5 39.0007 100.329 38.3287 101 37.5 101ZM39 96 33 96 33 91 39 91 39 96Z" fill="#142DEA"/></g></svg>