<svg width="24" height="24" xmlns="http://www.w3.org/2000/svg" xmlns:xlink="http://www.w3.org/1999/xlink" xml:space="preserve" overflow="hidden"><g transform="translate(-48 -83)"><path d="M69 89.021C69.003 88.875 68.993 87.556 67.7 86.286 66.427 85.036 65.143 85 65 85L54.996 85C54.757 85 53.503 85.063 52.288 86.302 51.036 87.578 51 88.859 51 89L51 92 50 92 50 95 51 95 51 101C51 101.734 51.406 102.373 52 102.721L52 104C52 104.552 52.4477 105 53 105L54 105C54.5523 105 55 104.552 55 104L55 103 65 103 65 104C65 104.552 65.4477 105 66 105L67 105C67.5523 105 68 104.552 68 104L68 102.723C68.6175 102.369 68.9988 101.712 69 101L69 95 70 95 70 92 69 92 69 89.021ZM57 87 63 87 63 89 57 89 57 87ZM54.5 101C53.6713 101 52.9997 100.328 53 99.499 53.0003 98.6703 53.6723 97.9987 54.501 97.999 55.3297 97.9993 56.0013 98.6713 56.001 99.5 56.0007 100.329 55.3287 101 54.5 101ZM59 96 53 96 53 91 59 91 59 96ZM65.5 101C64.6713 101 63.9997 100.328 64 99.499 64.0003 98.6703 64.6723 97.9987 65.501 97.999 66.3297 97.9993 67.0013 98.6713 67.001 99.5 67.0007 100.329 66.3287 101 65.5 101ZM67 96 61 96 61 91 67 91 67 96Z" fill="#04AC30"/></g></svg>