<svg width="24" height="24" xmlns="http://www.w3.org/2000/svg" xmlns:xlink="http://www.w3.org/1999/xlink" xml:space="preserve" overflow="hidden"><g transform="translate(-48 -115)"><path d="M69 121.021C69.003 120.875 68.993 119.556 67.7 118.286 66.427 117.036 65.143 117 65 117L54.996 117C54.757 117 53.503 117.063 52.288 118.302 51.036 119.578 51 120.859 51 121L51 124 50 124 50 127 51 127 51 133C51 133.734 51.406 134.373 52 134.721L52 136C52 136.552 52.4477 137 53 137L54 137C54.5523 137 55 136.552 55 136L55 135 65 135 65 136C65 136.552 65.4477 137 66 137L67 137C67.5523 137 68 136.552 68 136L68 134.723C68.6175 134.369 68.9988 133.712 69 133L69 127 70 127 70 124 69 124 69 121.021ZM57 119 63 119 63 121 57 121 57 119ZM54.5 133C53.6713 133 52.9997 132.328 53 131.499 53.0003 130.67 53.6723 129.999 54.501 129.999 55.3297 129.999 56.0013 130.671 56.001 131.5 56.0007 132.329 55.3287 133 54.5 133ZM59 128 53 128 53 123 59 123 59 128ZM65.5 133C64.6713 133 63.9997 132.328 64 131.499 64.0003 130.67 64.6723 129.999 65.501 129.999 66.3297 129.999 67.0013 130.671 67.001 131.5 67.0007 132.329 66.3287 133 65.5 133ZM67 128 61 128 61 123 67 123 67 128Z" fill="#13136F"/></g></svg>