<svg width="24" height="24" xmlns="http://www.w3.org/2000/svg" xmlns:xlink="http://www.w3.org/1999/xlink" xml:space="preserve" overflow="hidden"><g transform="translate(-20 -115)"><path d="M41 121.021C41.003 120.875 40.993 119.556 39.7 118.286 38.427 117.036 37.143 117 37 117L26.996 117C26.757 117 25.503 117.063 24.288 118.302 23.036 119.578 23 120.859 23 121L23 124 22 124 22 127 23 127 23 133C23 133.734 23.406 134.373 24 134.721L24 136C24 136.552 24.4477 137 25 137L26 137C26.5523 137 27 136.552 27 136L27 135 37 135 37 136C37 136.552 37.4477 137 38 137L39 137C39.5523 137 40 136.552 40 136L40 134.723C40.6175 134.369 40.9988 133.712 41 133L41 127 42 127 42 124 41 124 41 121.021ZM29 119 35 119 35 121 29 121 29 119ZM26.5 133C25.6713 133 24.9997 132.328 25 131.499 25.0003 130.67 25.6723 129.999 26.501 129.999 27.3297 129.999 28.0013 130.671 28.001 131.5 28.0007 132.329 27.3287 133 26.5 133ZM31 128 25 128 25 123 31 123 31 128ZM37.5 133C36.6713 133 35.9997 132.328 36 131.499 36.0003 130.67 36.6723 129.999 37.501 129.999 38.3297 129.999 39.0013 130.671 39.001 131.5 39.0007 132.329 38.3287 133 37.5 133ZM39 128 33 128 33 123 39 123 39 128Z" fill="#92D050"/></g></svg>