<svg width="24" height="24" xmlns="http://www.w3.org/2000/svg" xmlns:xlink="http://www.w3.org/1999/xlink" xml:space="preserve" overflow="hidden"><g transform="translate(-107 -115)"><path d="M125.375 115.75 112.625 115.75C112.004 115.75 111.5 116.254 111.5 116.875L111.5 132.625C111.5 133.246 112.004 133.75 112.625 133.75L125.375 133.75C125.996 133.75 126.5 133.246 126.5 132.625L126.5 116.875C126.5 116.254 125.996 115.75 125.375 115.75ZM116.75 118 121.229 118C121.632 118 121.979 118.31 121.999 118.714 122.019 119.128 121.7 119.479 121.286 119.499 121.274 119.5 121.262 119.5 121.25 119.5L116.771 119.5C116.368 119.5 116.021 119.19 116.001 118.786 115.981 118.372 116.3 118.021 116.714 118.001 116.726 118 116.738 118 116.75 118ZM115.413 131.492C114.589 131.581 113.849 130.986 113.759 130.163 113.67 129.339 114.265 128.599 115.088 128.509 115.912 128.42 116.652 129.015 116.742 129.838 116.753 129.946 116.753 130.055 116.742 130.163 116.665 130.863 116.113 131.415 115.413 131.492ZM122.913 131.492C122.089 131.581 121.349 130.986 121.259 130.163 121.17 129.339 121.765 128.599 122.588 128.509 123.412 128.42 124.152 129.015 124.242 129.838 124.253 129.946 124.253 130.055 124.242 130.163 124.165 130.863 123.613 131.415 122.913 131.492ZM125 121.75 125 124.75 113 124.75 113 121.75Z" fill="#C78E55"/><path d="M120.969 134.5 122.439 136 115.561 136 117.031 134.5 114.969 134.5 111.192 138.25 113.311 138.25 114.061 137.5 123.939 137.5 124.689 138.25 126.813 138.25 123.078 134.5 120.969 134.5Z" fill="#C78E55"/></g></svg>