<svg width="24" height="24" xmlns="http://www.w3.org/2000/svg" xmlns:xlink="http://www.w3.org/1999/xlink" xml:space="preserve" overflow="hidden"><g transform="translate(-78 -115)"><path d="M96.375 115.75 83.625 115.75C83.0037 115.75 82.5 116.254 82.5 116.875L82.5 132.625C82.5 133.246 83.0037 133.75 83.625 133.75L96.375 133.75C96.9963 133.75 97.5 133.246 97.5 132.625L97.5 116.875C97.5 116.254 96.9963 115.75 96.375 115.75ZM87.75 118 92.2289 118C92.6325 118 92.9789 118.31 92.9991 118.714 93.019 119.128 92.6998 119.479 92.286 119.499 92.274 119.5 92.262 119.5 92.25 119.5L87.7711 119.5C87.3675 119.5 87.0211 119.19 87.0009 118.786 86.981 118.372 87.3002 118.021 87.714 118.001 87.726 118 87.738 118 87.75 118ZM86.4127 131.492C85.5891 131.581 84.8488 130.986 84.7592 130.163 84.6695 129.339 85.2645 128.599 86.0881 128.509 86.9116 128.42 87.6519 129.015 87.7416 129.838 87.7533 129.946 87.7533 130.055 87.7416 130.163 87.6654 130.863 87.1126 131.415 86.4127 131.492ZM93.9127 131.492C93.0891 131.581 92.3488 130.986 92.2592 130.163 92.1695 129.339 92.7645 128.599 93.5881 128.509 94.4116 128.42 95.1519 129.015 95.2416 129.838 95.2533 129.946 95.2533 130.055 95.2416 130.163 95.1654 130.863 94.6126 131.415 93.9127 131.492ZM96 121.75 96 124.75 84 124.75 84 121.75Z" fill="#FF8001"/><path d="M91.9688 134.5 93.4392 136 86.5608 136 88.0312 134.5 85.9688 134.5 82.192 138.25 84.3108 138.25 85.0608 137.5 94.9392 137.5 95.6892 138.25 97.8127 138.25 94.0781 134.5 91.9688 134.5Z" fill="#FF8001"/></g></svg>