<svg width="24" height="24" xmlns="http://www.w3.org/2000/svg" xmlns:xlink="http://www.w3.org/1999/xlink" xml:space="preserve" overflow="hidden"><g transform="translate(-105 -83)"><path d="M126 89.021C126.003 88.875 125.993 87.556 124.7 86.286 123.427 85.036 122.143 85 122 85L111.996 85C111.757 85 110.503 85.063 109.288 86.302 108.036 87.578 108 88.859 108 89L108 92 107 92 107 95 108 95 108 101C108 101.734 108.406 102.373 109 102.721L109 104C109 104.552 109.448 105 110 105L111 105C111.552 105 112 104.552 112 104L112 103 122 103 122 104C122 104.552 122.448 105 123 105L124 105C124.552 105 125 104.552 125 104L125 102.723C125.618 102.369 125.999 101.712 126 101L126 95 127 95 127 92 126 92 126 89.021ZM114 87 120 87 120 89 114 89 114 87ZM111.5 101C110.671 101 110 100.328 110 99.499 110 98.6703 110.672 97.9987 111.501 97.999 112.33 97.9993 113.001 98.6713 113.001 99.5 113.001 100.329 112.329 101 111.5 101ZM116 96 110 96 110 91 116 91 116 96ZM122.5 101C121.671 101 121 100.328 121 99.499 121 98.6703 121.672 97.9987 122.501 97.999 123.33 97.9993 124.001 98.6713 124.001 99.5 124.001 100.329 123.329 101 122.5 101ZM124 96 118 96 118 91 124 91 124 96Z" fill="#0EB274"/></g></svg>