<svg width="24" height="24" xmlns="http://www.w3.org/2000/svg" xmlns:xlink="http://www.w3.org/1999/xlink" xml:space="preserve" overflow="hidden"><g transform="translate(-78 -83)"><path d="M99 89.021C99.003 88.875 98.993 87.556 97.7 86.286 96.427 85.036 95.143 85 95 85L84.996 85C84.757 85 83.503 85.063 82.288 86.302 81.036 87.578 81 88.859 81 89L81 92 80 92 80 95 81 95 81 101C81 101.734 81.406 102.373 82 102.721L82 104C82 104.552 82.4477 105 83 105L84 105C84.5523 105 85 104.552 85 104L85 103 95 103 95 104C95 104.552 95.4477 105 96 105L97 105C97.5523 105 98 104.552 98 104L98 102.723C98.6175 102.369 98.9988 101.712 99 101L99 95 100 95 100 92 99 92 99 89.021ZM87 87 93 87 93 89 87 89 87 87ZM84.5 101C83.6713 101 82.9997 100.328 83 99.499 83.0003 98.6703 83.6723 97.9987 84.501 97.999 85.3297 97.9993 86.0013 98.6713 86.001 99.5 86.0007 100.329 85.3287 101 84.5 101ZM89 96 83 96 83 91 89 91 89 96ZM95.5 101C94.6713 101 93.9997 100.328 94 99.499 94.0003 98.6703 94.6723 97.9987 95.501 97.999 96.3297 97.9993 97.0013 98.6713 97.001 99.5 97.0007 100.329 96.3287 101 95.5 101ZM97 96 91 96 91 91 97 91 97 96Z" fill="#FF0000"/></g></svg>